HIERARCHY
ROOT Hips
{
	OFFSET -0.087744 88.518600 4.106688
	CHANNELS 6 Xposition Yposition Zposition Zrotation Yrotation Xrotation 
	JOINT Spine
	{
		OFFSET 0.000000 8.814246 -2.080107
		CHANNELS 3 Zrotation Yrotation Xrotation
		JOINT Spine1
		{
			OFFSET -0.000000 8.844141 -0.000000
			CHANNELS 3 Zrotation Yrotation Xrotation
			JOINT Spine2
			{
				OFFSET 0.000000 11.682268 0.000000
				CHANNELS 3 Zrotation Yrotation Xrotation
				JOINT Spine3
				{
					OFFSET 0.000000 11.746700 0.000000
					CHANNELS 3 Zrotation Yrotation Xrotation
					JOINT Neck
					{
						OFFSET 0.000000 17.658264 -0.000000
						CHANNELS 3 Zrotation Yrotation Xrotation
						JOINT Neck1
						{
							OFFSET -0.000000 5.101515 -0.000000
							CHANNELS 3 Zrotation Yrotation Xrotation
							JOINT Head
							{
								OFFSET -0.000000 5.101515 -0.000000
								CHANNELS 3 Zrotation Yrotation Xrotation
								JOINT HeadEnd
								{
									OFFSET 0.000000 11.655085 0.000000
									CHANNELS 3 Zrotation Yrotation Xrotation
									End Site
									{
										OFFSET 0.000000 0.000000 0.000000
									}
								}
							}
						}
					}
					JOINT RightShoulder
					{
						OFFSET -2.625389 11.175210 0.000000
						CHANNELS 3 Zrotation Yrotation Xrotation
						JOINT RightArm
						{
							OFFSET 0.000000 10.434715 -0.000000
							CHANNELS 3 Zrotation Yrotation Xrotation
							JOINT RightForeArm
							{
								OFFSET -0.000000 29.628420 0.000000
								CHANNELS 3 Zrotation Yrotation Xrotation
								JOINT RightHand
								{
									OFFSET -0.000000 22.857611 0.000000
									CHANNELS 3 Zrotation Yrotation Xrotation
									JOINT RightHandThumb1
									{
										OFFSET -2.867323 3.959563 2.944291
										CHANNELS 3 Zrotation Yrotation Xrotation
										JOINT RightHandThumb2
										{
											OFFSET -0.000000 3.350399 0.000000
											CHANNELS 3 Zrotation Yrotation Xrotation
											JOINT RightHandThumb3
											{
												OFFSET 0.000000 3.756509 -0.000000
												CHANNELS 3 Zrotation Yrotation Xrotation
												JOINT RightHandThumb4
												{
													OFFSET -0.000000 3.147345 0.000000
													CHANNELS 3 Zrotation Yrotation Xrotation
													End Site
													{
														OFFSET 0.000000 0.000000 0.000000
													}
												}
											}
										}
									}
									JOINT RightHandIndex1
									{
										OFFSET -0.086752 10.030893 2.345280
										CHANNELS 3 Zrotation Yrotation Xrotation
										JOINT RightHandIndex2
										{
											OFFSET 0.000000 4.061090 -0.000000
											CHANNELS 3 Zrotation Yrotation Xrotation
											JOINT RightHandIndex3
											{
												OFFSET 0.000000 3.248873 -0.000000
												CHANNELS 3 Zrotation Yrotation Xrotation
												JOINT RightHandIndex4
												{
													OFFSET 0.000000 2.639709 -0.000000
													CHANNELS 3 Zrotation Yrotation Xrotation
													End Site
													{
														OFFSET 0.000000 0.000000 0.000000
													}
												}
											}
										}
									}
									JOINT RightHandMiddle1
									{
										OFFSET 0.104102 9.502952 0.006768
										CHANNELS 3 Zrotation Yrotation Xrotation
										JOINT RightHandMiddle2
										{
											OFFSET 0.000000 4.568727 -0.000000
											CHANNELS 3 Zrotation Yrotation Xrotation
											JOINT RightHandMiddle3
											{
												OFFSET -0.000000 3.654981 0.000000
												CHANNELS 3 Zrotation Yrotation Xrotation
												JOINT RightHandMiddle4
												{
													OFFSET 0.000000 2.741236 0.000000
													CHANNELS 3 Zrotation Yrotation Xrotation
													End Site
													{
														OFFSET 0.000000 0.000000 0.000000
													}
												}
											}
										}
									}
									JOINT RightHandRing1
									{
										OFFSET 0.086752 8.921708 -2.267442
										CHANNELS 3 Zrotation Yrotation Xrotation
										JOINT RightHandRing2
										{
											OFFSET 0.000000 4.061090 -0.000000
											CHANNELS 3 Zrotation Yrotation Xrotation
											JOINT RightHandRing3
											{
												OFFSET -0.000000 3.654981 0.000000
												CHANNELS 3 Zrotation Yrotation Xrotation
												JOINT RightHandRing4
												{
													OFFSET 0.000000 2.741236 -0.000000
													CHANNELS 3 Zrotation Yrotation Xrotation
													End Site
													{
														OFFSET 0.000000 0.000000 0.000000
													}
												}
											}
										}
									}
									JOINT RightHandPinky1
									{
										OFFSET -0.173504 7.976997 -4.467199
										CHANNELS 3 Zrotation Yrotation Xrotation
										JOINT RightHandPinky2
										{
											OFFSET 0.000000 3.350399 0.000000
											CHANNELS 3 Zrotation Yrotation Xrotation
											JOINT RightHandPinky3
											{
												OFFSET 0.000000 2.842763 -0.000000
												CHANNELS 3 Zrotation Yrotation Xrotation
												JOINT RightHandPinky4
												{
													OFFSET -0.000000 2.639709 -0.000000
													CHANNELS 3 Zrotation Yrotation Xrotation
													End Site
													{
														OFFSET 0.000000 0.000000 0.000000
													}
												}
											}
										}
									}
									JOINT RightForeArmEnd
									{
										OFFSET 0.000000 0.000000 0.000000
										CHANNELS 3 Zrotation Yrotation Xrotation
										End Site
										{
											OFFSET 0.000000 0.000000 0.000000
										}
									}
								}
								JOINT RightArmEnd
								{
									OFFSET 0.000000 0.000000 0.000000
									CHANNELS 3 Zrotation Yrotation Xrotation
									End Site
									{
										OFFSET 0.000000 0.000000 0.000000
									}
								}
							}
						}
					}
					JOINT LeftShoulder
					{
						OFFSET 2.625389 11.175210 -0.000000
						CHANNELS 3 Zrotation Yrotation Xrotation
						JOINT LeftArm
						{
							OFFSET -0.000000 10.813635 0.000000
							CHANNELS 3 Zrotation Yrotation Xrotation
							JOINT LeftForeArm
							{
								OFFSET -0.000000 28.724781 0.000000
								CHANNELS 3 Zrotation Yrotation Xrotation
								JOINT LeftHand
								{
									OFFSET 0.644384 25.716167 -0.328871
									CHANNELS 3 Zrotation Yrotation Xrotation
									JOINT LeftHandThumb1
									{
										OFFSET 2.867323 3.959563 2.944291
										CHANNELS 3 Zrotation Yrotation Xrotation
										JOINT LeftHandThumb2
										{
											OFFSET -0.000000 3.350399 0.000000
											CHANNELS 3 Zrotation Yrotation Xrotation
											JOINT LeftHandThumb3
											{
												OFFSET -0.000000 3.756509 -0.000000
												CHANNELS 3 Zrotation Yrotation Xrotation
												JOINT LeftHandThumb4
												{
													OFFSET 0.000000 3.100000 -0.000000
													CHANNELS 3 Zrotation Yrotation Xrotation
													End Site
													{
														OFFSET 0.000000 0.000000 0.000000
													}
												}
											}
										}
									}
									JOINT LeftHandIndex1
									{
										OFFSET 0.086752 10.030893 2.345280
										CHANNELS 3 Zrotation Yrotation Xrotation
										JOINT LeftHandIndex2
										{
											OFFSET -0.000000 4.061090 0.000000
											CHANNELS 3 Zrotation Yrotation Xrotation
											JOINT LeftHandIndex3
											{
												OFFSET 0.000000 3.248873 0.000000
												CHANNELS 3 Zrotation Yrotation Xrotation
												JOINT LeftHandIndex4
												{
													OFFSET 0.000000 2.639709 -0.000000
													CHANNELS 3 Zrotation Yrotation Xrotation
													End Site
													{
														OFFSET 0.000000 0.000000 0.000000
													}
												}
											}
										}
									}
									JOINT LeftHandMiddle1
									{
										OFFSET -0.104102 9.502952 0.006768
										CHANNELS 3 Zrotation Yrotation Xrotation
										JOINT LeftHandMiddle2
										{
											OFFSET 0.000000 4.568727 -0.000000
											CHANNELS 3 Zrotation Yrotation Xrotation
											JOINT LeftHandMiddle3
											{
												OFFSET 0.000000 3.654981 0.000000
												CHANNELS 3 Zrotation Yrotation Xrotation
												JOINT LeftHandMiddle4
												{
													OFFSET -0.000000 2.741236 -0.000000
													CHANNELS 3 Zrotation Yrotation Xrotation
													End Site
													{
														OFFSET 0.000000 0.000000 0.000000
													}
												}
											}
										}
									}
									JOINT LeftHandRing1
									{
										OFFSET -0.086752 8.921708 -2.267442
										CHANNELS 3 Zrotation Yrotation Xrotation
										JOINT LeftHandRing2
										{
											OFFSET -0.000000 4.061090 -0.000000
											CHANNELS 3 Zrotation Yrotation Xrotation
											JOINT LeftHandRing3
											{
												OFFSET 0.000000 3.654981 0.000000
												CHANNELS 3 Zrotation Yrotation Xrotation
												JOINT LeftHandRing4
												{
													OFFSET -0.000000 2.741236 -0.000000
													CHANNELS 3 Zrotation Yrotation Xrotation
													End Site
													{
														OFFSET 0.000000 0.000000 0.000000
													}
												}
											}
										}
									}
									JOINT LeftHandPinky1
									{
										OFFSET 0.173504 7.976997 -4.467199
										CHANNELS 3 Zrotation Yrotation Xrotation
										JOINT LeftHandPinky2
										{
											OFFSET 0.000000 3.350399 0.000000
											CHANNELS 3 Zrotation Yrotation Xrotation
											JOINT LeftHandPinky3
											{
												OFFSET -0.000000 2.842763 -0.000000
												CHANNELS 3 Zrotation Yrotation Xrotation
												JOINT LeftHandPinky4
												{
													OFFSET -0.000000 2.639709 -0.000000
													CHANNELS 3 Zrotation Yrotation Xrotation
													End Site
													{
														OFFSET 0.000000 0.000000 0.000000
													}
												}
											}
										}
									}
									JOINT LeftForeArmEnd
									{
										OFFSET 0.000000 0.000000 0.000000
										CHANNELS 3 Zrotation Yrotation Xrotation
										End Site
										{
											OFFSET 0.000000 0.000000 0.000000
										}
									}
								}
								JOINT LeftArmEnd
								{
									OFFSET 0.000000 0.000000 0.000000
									CHANNELS 3 Zrotation Yrotation Xrotation
									End Site
									{
										OFFSET 0.000000 0.000000 0.000000
									}
								}
							}
						}
					}
				}
			}
		}
	}
	JOINT RightUpLeg
	{
		OFFSET -11.289943 0.000000 0.000000
		CHANNELS 3 Zrotation Yrotation Xrotation
		JOINT RightLeg
		{
			OFFSET -0.000000 -38.200325 -0.000000
			CHANNELS 3 Zrotation Yrotation Xrotation
			JOINT RightFoot
			{
				OFFSET -0.000000 -39.900856 -0.000000
				CHANNELS 3 Zrotation Yrotation Xrotation
				JOINT RightToeBase
				{
					OFFSET 0.000000 0.000000 15.261641
					CHANNELS 3 Zrotation Yrotation Xrotation
					JOINT RightToeBaseEnd
					{
						OFFSET 0.000000 0.000000 7.370709
						CHANNELS 3 Zrotation Yrotation Xrotation
						End Site
						{
							OFFSET 0.000000 0.000000 0.000000
						}
					}
				}
				JOINT RightLegEnd
				{
					OFFSET 0.000000 0.000000 0.000000
					CHANNELS 3 Zrotation Yrotation Xrotation
					End Site
					{
						OFFSET 0.000000 0.000000 0.000000
					}
				}
			}
			JOINT RightUpLegEnd
			{
				OFFSET 0.000000 0.000000 0.000000
				CHANNELS 3 Zrotation Yrotation Xrotation
				End Site
				{
					OFFSET 0.000000 0.000000 0.000000
				}
			}
		}
	}
	JOINT LeftUpLeg
	{
		OFFSET 11.315661 0.000000 -0.000000
		CHANNELS 3 Zrotation Yrotation Xrotation
		JOINT LeftLeg
		{
			OFFSET 0.000000 -38.200325 0.000000
			CHANNELS 3 Zrotation Yrotation Xrotation
			JOINT LeftFoot
			{
				OFFSET 0.000000 -39.900856 -0.000000
				CHANNELS 3 Zrotation Yrotation Xrotation
				JOINT LeftToeBase
				{
					OFFSET 0.000000 0.000000 15.261641
					CHANNELS 3 Zrotation Yrotation Xrotation
					JOINT LeftToeBaseEnd
					{
						OFFSET -0.000000 0.000000 7.539996
						CHANNELS 3 Zrotation Yrotation Xrotation
						End Site
						{
							OFFSET 0.000000 0.000000 0.000000
						}
					}
				}
				JOINT LeftLegEnd
				{
					OFFSET 0.000000 0.000000 0.000000
					CHANNELS 3 Zrotation Yrotation Xrotation
					End Site
					{
						OFFSET 0.000000 0.000000 0.000000
					}
				}
			}
			JOINT LeftUpLegEnd
			{
				OFFSET 0.000000 0.000000 0.000000
				CHANNELS 3 Zrotation Yrotation Xrotation
				End Site
				{
					OFFSET 0.000000 0.000000 0.000000
				}
			}
		}
	}
}
MOTION
Frames: 4
Frame Time: 0.016667
-0.087744 88.518600 4.106688 0.068919 0.010845 -8.942659 0.442413 -0.081069 6.970063 -1.393128 0.231170 0.120594 0.170773 -1.686916 3.633183 0.138037 -0.360124 1.632820 2.669741 1.360534 7.336633 0.504304 2.812674 -2.138667 -0.849185 -0.825950 -18.014040 0.000000 0.000000 0.000000 93.328857 -0.532019 9.249256 66.106537 -37.119999 4.142115 -0.118903 9.345549 21.275049 6.844851 17.264309 -6.195918 11.236529 -1.888869 39.607235 0.000000 0.000000 -27.360001 0.000000 0.000000 -18.999998 0.000000 0.000000 0.000000 16.490267 0.000000 -10.411167 11.543185 0.000000 0.000000 11.543185 0.000000 0.000000 0.000000 0.000000 0.000000 15.680838 0.000000 -10.611974 10.976586 0.000000 0.000000 10.976586 0.000000 0.000000 0.000000 0.000000 0.000000 17.926441 -0.000000 -9.075776 12.548511 0.000000 0.000000 12.548511 0.000000 0.000000 0.000000 0.000000 0.000000 19.209045 0.000000 -9.362014 13.446335 0.000000 0.000000 13.446335 0.000000 0.000000 0.000000 0.000000 0.000000 0.000000 0.000000 0.000000 0.000000 0.000000 0.000000 -92.264565 0.184447 4.508586 -67.528290 31.026754 -4.429007 -0.724142 -2.563973 37.835682 -1.518325 -21.259672 -14.755241 -10.637670 1.840800 39.870987 0.000000 0.000000 -25.919998 0.000000 0.000000 -18.000004 0.000000 0.000000 0.000000 -13.737988 0.000000 -10.271245 -9.616590 0.000000 0.000000 -9.616590 0.000000 0.000000 0.000000 0.000000 0.000000 -13.566373 0.000000 -10.909574 -9.496462 0.000000 0.000000 -9.496462 0.000000 0.000000 0.000000 0.000000 0.000000 -16.906538 -0.000000 -11.246544 -11.834577 0.000000 0.000000 -11.834577 0.000000 0.000000 0.000000 0.000000 0.000000 -19.165680 -0.000000 -11.938169 -13.415976 0.000000 0.000000 -13.415976 0.000000 0.000000 0.000000 0.000000 0.000000 0.000000 0.000000 0.000000 0.000000 0.000000 0.000000 -1.938379 -12.547268 14.781528 -0.051716 -0.791252 3.432337 -0.790947 -7.985100 17.498075 -0.970069 1.135202 -17.740036 0.000000 0.000000 0.000000 0.000000 0.000000 0.000000 0.000000 0.000000 0.000000 -1.007299 -7.770874 9.427107 0.095226 0.552794 9.721728 1.664590 4.975721 15.629977 0.746320 -0.643483 -19.338871 0.000000 0.000000 0.000000 0.000000 0.000000 0.000000 0.000000 0.000000 0.000000 
0.036910 88.532455 3.981934 -0.583424 -0.156395 -9.440563 1.930714 -0.298898 6.433655 -1.071362 0.183415 1.981439 0.414410 -1.363124 1.902346 -1.015682 -0.316915 3.596189 3.041756 0.653332 5.436891 1.330796 2.253927 -2.212860 -0.444910 -1.191045 -17.008093 0.000000 0.000000 0.000000 92.565430 -0.537074 9.842652 67.582985 -35.158283 4.029821 0.032449 11.279120 21.340839 6.941496 14.715627 -4.235882 11.099794 -1.860528 39.711266 0.000005 0.000023 -27.136274 0.000016 0.000034 -18.729897 0.000006 -0.000001 -0.000027 15.487875 -0.088524 -9.021994 11.153706 -0.005655 -0.185580 11.323656 0.011624 -0.185389 -0.000020 0.000025 -0.000023 15.024407 -0.028685 -9.724205 10.621722 0.001763 -0.083428 10.673259 0.007562 -0.076292 0.000014 0.000029 0.000005 16.932190 0.012626 -8.744652 11.753223 0.005082 0.127512 11.761893 -0.013884 0.106078 -0.000011 0.000739 0.000001 17.203693 0.015858 -9.300069 12.168958 -0.037093 0.534453 11.973280 -0.064957 0.443666 -0.000244 -0.000004 -0.000003 0.000000 0.000000 0.000000 0.000000 0.000000 0.000000 -89.969963 0.092330 6.525831 -68.429871 28.667477 -3.612433 -0.875015 -4.097335 37.918068 0.383208 -18.370552 -15.921395 -10.287658 1.784519 40.029663 -0.000002 0.000023 -25.062508 -0.000052 -0.000022 -17.491327 0.000333 -0.000004 0.000589 -13.182350 -0.028910 -9.575583 -9.161408 -0.029110 -0.018294 -9.519739 -0.016306 0.012907 0.000017 0.000280 0.000006 -13.096793 -0.008366 -10.123133 -9.010376 -0.011812 0.010329 -8.919384 -0.000877 0.016227 0.001214 -0.000046 0.000002 -16.533337 0.044553 -10.097532 -11.288783 0.012198 -0.081522 -11.162271 0.000685 -0.054990 0.000394 0.000008 0.000006 -18.393522 0.106602 -10.380202 -12.676257 0.036687 -0.228274 -12.612612 -0.016878 -0.258531 -0.000029 -0.000008 -0.000033 0.000000 0.000000 0.000000 0.000000 0.000000 0.000000 -1.820944 -12.018175 15.123667 -0.067303 -0.759151 3.775712 -1.487126 -9.244033 17.005583 -1.160609 1.033778 -16.931145 0.000000 0.000000 0.000000 0.000000 0.000000 0.000000 0.000000 0.000000 0.000000 0.529262 -4.551159 10.294810 0.104059 0.534559 9.504492 1.613220 2.419656 15.445782 0.543743 -0.502227 -19.954109 0.000000 0.000000 0.000000 0.000000 0.000000 0.000000 0.000000 0.000000 0.000000 
0.039640 88.525970 3.934108 -0.552696 -0.051298 -9.336417 1.851355 -0.305414 6.403535 -1.108956 0.177315 2.067413 0.445694 -1.473770 1.760106 -0.976363 -0.357345 3.640660 3.121270 0.545803 5.434534 1.326761 2.195313 -2.103965 -0.438166 -1.161793 -16.938309 0.000000 0.000000 0.000000 92.429901 -0.515300 9.870781 67.442268 -35.260147 4.206758 0.004060 11.223750 21.370363 7.015145 14.252606 -4.218592 11.105733 -1.860209 39.709866 0.000002 0.000041 -27.155708 0.000020 0.000030 -18.750418 0.000012 0.000003 -0.000038 15.516572 -0.084500 -8.899014 11.160005 -0.002275 -0.206538 11.334003 0.016229 -0.202123 -0.000003 0.000039 -0.000016 15.047544 -0.027880 -9.611793 10.605418 0.002073 -0.089878 10.642176 0.008861 -0.079820 0.000015 0.000008 -0.000008 16.855509 0.007818 -8.673898 11.667758 0.003635 0.127920 11.685903 -0.014709 0.107884 -0.000016 0.000820 -0.000004 17.066383 0.003547 -9.303638 12.058422 -0.037809 0.533492 11.856724 -0.067159 0.446634 -0.000311 0.000003 -0.000005 0.000000 0.000000 0.000000 0.000000 0.000000 0.000000 -89.730057 0.086217 6.543388 -68.601257 28.673689 -3.460333 -0.782180 -3.965483 37.581150 0.391600 -18.102133 -15.745303 -10.256180 1.775836 40.038956 0.000007 0.000028 -25.027565 -0.000071 -0.000015 -17.470690 0.000242 -0.000001 0.000383 -13.097761 -0.019419 -9.518183 -9.220921 -0.028742 -0.021388 -9.578059 -0.014509 0.008262 0.000026 0.000259 0.000008 -12.988435 -0.005163 -10.106544 -9.047342 -0.011509 0.007815 -8.954222 -0.000682 0.014108 0.001380 -0.000041 -0.000027 -16.299950 0.044203 -10.176377 -11.249846 0.012514 -0.080114 -11.126695 0.000372 -0.054370 0.000421 0.000014 0.000007 -18.064585 0.104800 -10.500395 -12.579657 0.033273 -0.228805 -12.514050 -0.020187 -0.256378 -0.000064 0.000007 -0.000052 0.000000 0.000000 0.000000 0.000000 0.000000 0.000000 -1.878161 -12.265662 14.959723 -0.063685 -0.756734 3.772448 -1.433213 -9.361131 17.022451 -1.167241 1.039169 -16.906672 0.000000 0.000000 0.000000 0.000000 0.000000 0.000000 0.000000 0.000000 0.000000 0.556081 -4.454923 10.016463 0.103942 0.526345 9.585568 1.593936 2.344612 15.521688 0.551722 -0.506540 -19.926249 0.000000 0.000000 0.000000 0.000000 0.000000 0.000000 0.000000 0.000000 0.000000 
0.033182 88.508842 3.888263 -0.520415 0.018866 -9.251265 1.796488 -0.303897 6.423507 -1.146213 0.181394 2.113920 0.462391 -1.533127 1.676564 -0.957941 -0.376411 3.666917 3.145365 0.487724 5.394086 1.330644 2.154375 -2.056246 -0.437193 -1.157353 -16.867941 0.000000 0.000000 0.000000 92.316704 -0.496587 9.915268 67.349449 -35.395561 4.315382 -0.006612 11.300625 21.428381 7.219548 14.093396 -4.237363 11.110504 -1.858316 39.709667 0.000003 0.000040 -27.174751 0.000019 0.000031 -18.768194 0.000011 0.000003 -0.000037 15.569726 -0.083116 -8.842999 11.228051 0.001174 -0.222581 11.400640 0.020359 -0.215843 -0.000004 0.000039 -0.000016 15.097873 -0.027877 -9.543293 10.653376 0.002929 -0.095616 10.682053 0.010064 -0.083930 0.000015 0.000003 -0.000006 16.873785 0.005712 -8.599459 11.670555 0.002287 0.128769 11.695123 -0.015492 0.109517 -0.000015 0.000795 -0.000002 17.072744 0.000140 -9.253211 12.044056 -0.039783 0.535517 11.833673 -0.069761 0.448446 -0.000375 0.000003 -0.000013 0.000000 0.000000 0.000000 0.000000 0.000000 0.000000 -89.591042 0.076851 6.553215 -68.567192 28.724707 -3.302691 -0.727481 -3.937424 37.409340 0.386193 -18.084129 -15.424685 -10.239769 1.768377 40.046864 0.000006 0.000029 -25.018057 -0.000077 -0.000017 -17.462502 0.000119 -0.000004 0.000267 -13.054351 -0.015564 -9.557326 -9.314074 -0.027360 -0.017629 -9.673368 -0.011853 0.010012 0.000025 0.000231 0.000009 -12.931048 -0.003527 -10.129464 -9.121605 -0.010932 0.008308 -9.030571 -0.000007 0.014396 0.001524 -0.000041 -0.000041 -16.156597 0.045643 -10.231236 -11.272891 0.011931 -0.081957 -11.148874 -0.000521 -0.055485 0.000478 0.000014 0.000006 -17.876490 0.107841 -10.530897 -12.559299 0.029884 -0.233567 -12.491705 -0.023286 -0.256064 -0.000088 0.000006 -0.000053 0.000000 0.000000 0.000000 0.000000 0.000000 0.000000 -1.921951 -12.393597 14.786783 -0.060972 -0.751722 3.822006 -1.389213 -9.481833 17.022381 -1.170894 1.042410 -16.902756 0.000000 0.000000 0.000000 0.000000 0.000000 0.000000 0.000000 0.000000 0.000000 0.573855 -4.455252 9.771461 0.106081 0.523196 9.710518 1.551426 2.284482 15.533598 0.561695 -0.510886 -19.909487 0.000000 0.000000 0.000000 0.000000 0.000000 0.000000 0.000000 0.000000 0.000000 
